{
	"asset":{
		"version":"2.0",
		"generator":"Created using the official Cinema 4D glTF Exporter 1.000x290161"
	},
	"scenes":[{
		"nodes":[0]
	}],
	"nodes":[{
		"name":"vein_growth_01",
		"mesh":0
	}],
	"meshes":[{
		"primitives":[{
			"attributes":{
				"POSITION":1,
				"NORMAL":2
			},
			"indices":0,
			"material":0
		}]
	}],
	"accessors":[{
		"bufferView":0,
		"type":"SCALAR",
		"componentType":5123,
		"count":134256,
		"byteOffset":0,
		"min":[0],
		"max":[37359]
	},
	{
		"bufferView":1,
		"type":"VEC3",
		"componentType":5126,
		"count":37360,
		"byteOffset":0,
		"min":[-0.3524898886680603,
		-0.9616261124610901,
		-1.0062878131866456],
		"max":[0.18682777881622315,
		0.9245184063911438,
		0.998989999294281]
	},
	{
		"bufferView":1,
		"type":"VEC3",
		"componentType":5126,
		"count":37360,
		"byteOffset":12,
		"min":[-0.9998269081115723,
		-0.9999734163284302,
		-0.9997047781944275],
		"max":[0.999846339225769,
		0.9999758005142212,
		0.9999050498008728]
	}],
	"bufferViews":[{
		"byteOffset":0,
		"buffer":0,
		"byteLength":268512,
		"target":34963
	},
	{
		"byteOffset":268512,
		"buffer":0,
		"byteLength":896640,
		"target":34962,
		"byteStride":24
	}],
	"buffers":[{
		"uri":"data:application/octet-stream;base64,",
		"byteLength":1165152
	}],
	"materials":[{
		"name":"",
		"pbrMetallicRoughness":{
			"baseColorFactor":[1.0,
			1.0,
			1.0,
			1.0],
			"metallicFactor":1.0,
			"roughnessFactor":1.0
		},
		"emissiveFactor":[0.0,
		0.0,
		0.0],
		"alphaMode":"OPAQUE",
		"doubleSided":true
	}]
}